<?xml version="1.0" encoding="UTF-8" standalone="no"?>
<svg
   xmlns:dc="http://purl.org/dc/elements/1.1/"
   xmlns:cc="http://creativecommons.org/ns#"
   xmlns:rdf="http://www.w3.org/1999/02/22-rdf-syntax-ns#"
   xmlns:svg="http://www.w3.org/2000/svg"
   xmlns="http://www.w3.org/2000/svg"
   id="svg901"
   version="1.1"
   viewBox="0 0 50.405094 57.773191"
   height="218.35536"
   width="190.50745">
  <defs
     id="defs895" />
  <metadata
     id="metadata898">
    <rdf:RDF>
      <cc:Work
         rdf:about="">
        <dc:format>image/svg+xml</dc:format>
        <dc:type
           rdf:resource="http://purl.org/dc/dcmitype/StillImage" />
        <dc:title></dc:title>
      </cc:Work>
    </rdf:RDF>
  </metadata>
  <g
     transform="translate(-83.276617,-150.94078)"
     id="layer1">
    <g
       transform="matrix(-0.03643201,-0.50588553,0.57949365,0.12425553,-124.78229,354.46807)"
       id="g4567"
       style="display:inline;opacity:1;fill:#ff440b;fill-opacity:1;stroke:none;stroke-opacity:1">
      <path
         id="path4555"
         d="m 503.19023,410.68301 c -0.98606,-4.17399 -4.08391,-8.05506 -9.98517,-10.00161 -7.36202,-2.4284 -9.71613,-1.36177 -14.12132,-4.59114 -5.38909,-3.95066 -13.11015,-12.72361 -10.83655,-3.52862 1.192,4.82073 5.41324,10.40197 7.2409,14.12287 2.73278,5.56353 -2.52172,7.78858 -6.16674,8.53452 -12.82978,2.62553 -27.23568,-15.07941 -43.5287,-16.68902 -10.08369,-0.99617 -18.2405,6.9559 -20.00053,17.4409 -8.53797,4.48909 -13.74789,-1.68006 -17.55924,-8.36492 l 3.54886,14.44857 c 5.69254,2.30521 3.87685,1.57952 7.05215,-0.54162 1.49379,-0.99791 4.0079,-1.62418 6.60823,-1.75567 -0.0153,0.87391 0.003,1.75746 0.0785,2.65068 0.50112,6.0045 4.09142,12.15418 8.77181,17.93302 -1.20483,0.30463 -3.02736,0.71254 -4.29299,0.66762 -2.41725,-0.0858 -4.06869,-1.1309 -7.35617,-1.79145 -2.14987,-0.43196 -6.20989,-1.03967 -6.92788,-1.14749 l 3.22037,13.11114 c 7.38229,-3.84864 6.78077,-9.04414 14.11538,-7.98733 1.40385,0.20225 3.34048,1.04418 5.62688,2.15736 4.27746,3.60341 6.42537,5.60072 12.3088,9.23645 4.52833,2.7983 8.61959,1.56928 16.93617,6.40383 3.6589,2.12697 8.16419,3.21377 10.592,2.23968 -2.75326,-0.39012 -7.20874,-4.67289 -8.35831,-6.38369 -2.44619,-3.64045 -2.20935,-5.03046 -1.67274,-6.73746 2.67198,-1.13465 3.15813,3.14521 4.49798,5.02187 2.07978,2.91301 5.72568,5.99311 10.85856,6.03968 6.81871,0.0618 7.93721,-2.61837 10.2171,-4.5951 -4.54135,0.91739 -9.99122,1.41291 -14.35896,-1.73592 -5.39989,-3.89297 -5.60082,-8.02194 -3.90052,-9.07393 1.181,-0.7307 2.77221,-0.72264 4.70859,0.92622 2.82831,2.4083 5.8739,4.14174 10.92057,1.2204 -6.58773,-0.1683 -10.19323,-3.66803 -13.87031,-8.47134 -1.90601,-2.48981 -2.37866,-3.90955 -3.11545,-6.23467 -0.73678,-2.32512 1.44815,-4.5913 1.44815,-4.5913 20.59121,4.5115 43.0067,-2.462 46.09672,-8.43868 1.45955,-2.82305 1.97082,-6.24743 1.20389,-9.49385 z m -7.83687,49.65632 c -1.50517,-0.2045 -2.47969,-0.72754 -3.88236,-2.2338 -2.44185,-2.62217 -4.85358,-1.96314 -6.95613,-0.64455 0.96039,0.23874 1.65015,-0.40739 4.0304,2.03114 2.37244,2.43056 5.33138,1.179 6.80809,0.84721 z m -7.40763,-5.22007 c -1.88231,-2.02387 -7.55025,-2.09933 -10.53144,0.88588 -5.9245,5.93247 -4.45386,4.25716 -7.13141,5.6378 1.63168,-0.15315 6.17695,0.84145 11.66569,-4.06935 1.67755,-1.56693 2.7338,-3.45295 5.99716,-2.45433 z m -2.43845,-8.14974 c -0.59806,-2.64498 -2.40836,-6.03507 -9.41892,-4.40052 -8.51773,1.98594 -9.91237,0.93057 -15.7964,-2.07348 2.27179,4.18522 10.29748,7.80099 18.11074,5.52169 2.31901,-0.67648 5.47231,0.17627 7.4463,3.13551 -0.0777,-0.50239 -0.14237,-1.30154 -0.34172,-2.1832 z m -0.99914,5.39551 c -2.21292,-1.29782 -5.59712,-3.26861 -10.02153,-1.11173 -6.09094,2.96926 -5.99997,3.84937 -10.45176,2.99949 1.94949,0.87694 7.56539,2.36527 12.56664,-1.02814 3.03436,-2.05886 5.48107,-1.30025 7.90665,-0.85962 z m -11.9443,-11.51436 c -3.82786,0.67514 -5.70571,-1.50676 -9.44229,-3.6858 -2.62442,-1.53047 -5.38974,-1.18178 -6.34218,-1.04066 5.59307,6.37497 13.99378,6.33639 15.78447,4.72646 z m 5.329,35.19335 c -1.29375,-0.54299 -1.60907,-1.62572 -2.75848,-2.9564 -2.11511,-2.44869 -5.06885,-2.1616 -7.30302,-2.29564 2.29943,0.70983 3.05364,1.04933 5.0287,3.04601 1.52454,1.54122 3.08361,2.21163 5.0328,2.20603 z m -4.2504,-5.73775 c -0.21557,-0.77899 -2.4661,-3.00511 -7.44621,-3.16417 -2.81853,-0.0524 -3.57959,0.0346 -4.31175,-1.53473 -0.30328,-0.65006 0.76409,-1.2331 2.79204,-1.53598 -1.2665,-0.32205 -1.72815,-1.32795 -4.65819,-0.23693 -6.84718,2.28646 -14.87289,-2.75 -17.97312,-4.16307 4.1196,5.20194 15.04386,11.43036 22.69366,10.21985 2.959,-0.46823 5.48855,-1.08688 8.90357,0.41503 z"
         style="fill:#ff440b;fill-opacity:1;stroke:none;stroke-width:0.23140782;stroke-opacity:1" />
    </g>
    <path
       id="path906"
       d="m 93.949785,157.04289 c -0.654277,2.88639 -1.424524,2.70704 -2.590754,1.66181 z"
       style="display:inline;opacity:1;fill:#353535;fill-opacity:1;stroke:none;stroke-width:0.16083954;stroke-opacity:1" />
  </g>
</svg>
